<?xml version="1.0" encoding="UTF-8" standalone="no"?>
<!DOCTYPE svg PUBLIC "-//W3C//DTD SVG 1.1//EN" "http://www.w3.org/Graphics/SVG/1.1/DTD/svg11.dtd">
<svg width="100%" height="100%" viewBox="0 0 527 512" version="1.1" xmlns="http://www.w3.org/2000/svg" xmlns:xlink="http://www.w3.org/1999/xlink" xml:space="preserve" xmlns:serif="http://www.serif.com/" style="fill-rule:evenodd;clip-rule:evenodd;stroke-linejoin:round;stroke-miterlimit:2;">
    <g transform="matrix(0.242487,0,0,0.267652,-922.976,-1218.95)">
        <path d="M3995.47,5057.6C4055.94,4974.02 4130.15,4899.32 4215.18,4836.14C4149.43,4823.02 4100.17,4769.87 4100.17,4706.38L4100.17,4687.11C4100.17,4613.78 4165.88,4554.24 4246.82,4554.24L5546.76,4554.24C5627.7,4554.24 5693.41,4613.78 5693.41,4687.11L5693.41,4706.38C5693.41,4768.53 5646.21,4820.77 5582.54,4835.26C5655.26,4889.13 5720.09,4951.42 5775.23,5020.48C5758.27,5022.15 5740.21,5021.8 5720.91,5018.89C5213.63,4942.32 4991.38,5068.75 4429.82,5108.55C4278.06,5119.3 4109.36,5086.6 3995.47,5057.6ZM5852.44,5132.33C5933.58,5269.68 5979.61,5426.57 5979.61,5593.12C5979.61,5974.91 5737.76,6305.92 5385.4,6467.17L4711.23,6467.17L4711.34,6337.42C4711.35,6317.28 4700.8,6256.15 4685.6,6189.56C4844.62,6124.05 4838.26,5948.95 4838.26,5948.95C4836.76,5917.81 4807.63,5893.64 4773.26,5895.01C4738.89,5896.37 4712.21,5922.76 4713.72,5953.9C4713.72,5953.9 4719.34,6033.97 4655.68,6075.41C4645.81,6043.04 4635.59,6014.91 4625.9,5996.33C4594.22,5935.56 4589.04,5832.31 4589.04,5832.31C4587.18,5801.18 4557.78,5777.28 4523.43,5778.97C4489.08,5780.65 4462.7,5807.28 4464.56,5838.41C4464.56,5838.41 4473.28,5968.02 4513.17,6044.56C4546.24,6107.98 4586.7,6300.87 4586.67,6337.34L4586.56,6467.17L4472.46,6467.17C4471.87,6411.64 4469.76,6351.35 4464.74,6295.96C4457.72,6218.64 4443.87,6150.29 4423.35,6111.95C4388.64,6047.08 4318.84,5972.19 4264.09,5855.12C4223.61,5768.56 4224.4,5620.7 4224.4,5620.7C4224.34,5589.54 4196.36,5564.28 4161.95,5564.34C4127.55,5564.4 4099.68,5589.75 4099.74,5620.92C4099.74,5620.92 4101.2,5796.31 4149.31,5899.18C4205.11,6018.51 4275.79,6095.1 4311.18,6161.22C4327.17,6191.12 4335.02,6244.93 4340.49,6305.22C4344.27,6346.81 4346.32,6391.27 4347.3,6434.18C4031.21,6263.38 3819.31,5950.49 3819.31,5593.12C3819.31,5440.91 3857.74,5296.78 3926.29,5168.25C4050.83,5201.52 4256.94,5245.41 4440.51,5232.4C4987.76,5193.62 5204.03,5066.82 5698.37,5141.44C5755.91,5150.12 5806.9,5145.45 5852.44,5132.33ZM5365.36,5476.88C5302.01,5428.56 5216.53,5386.84 5114.07,5386.84C5011.62,5386.84 4926.14,5428.56 4862.79,5476.88C4799.6,5525.19 4754.68,5582.87 4731.89,5622.99C4724.3,5636.46 4724.3,5652.41 4731.89,5665.88C4754.68,5706 4799.6,5763.68 4862.79,5812C4926.14,5860.45 5011.62,5902.18 5114.07,5902.18C5216.53,5902.18 5302.01,5860.45 5365.36,5812.14C5391.54,5792.09 5414.65,5770.42 5434.36,5749.04L5579.32,5825.47C5599.52,5836.15 5625.21,5833.22 5641.86,5818.29C5658.5,5803.36 5661.89,5780.23 5650.26,5761.78L5576.25,5644.51L5650.26,5527.24C5661.89,5508.79 5658.34,5485.66 5641.69,5470.73C5625.05,5455.79 5599.52,5452.87 5579.15,5463.55L5434.2,5540.12C5414.49,5518.75 5391.38,5497.08 5365.2,5477.02L5365.36,5476.88ZM4933.08,5644.51C4933.08,5618.81 4956.43,5597.66 4984.8,5597.66C5013.16,5597.66 5036.51,5618.81 5036.51,5644.51C5036.51,5670.21 5013.16,5691.36 4984.8,5691.36C4956.43,5691.36 4933.08,5670.21 4933.08,5644.51ZM4655.13,5444.56C4620.65,5444.56 4592.65,5469.92 4592.65,5501.16C4592.65,5532.4 4620.65,5557.77 4655.13,5557.77C4689.61,5557.77 4717.61,5532.4 4717.61,5501.16C4717.61,5469.92 4689.61,5444.56 4655.13,5444.56ZM4411.15,5331.35C4376.66,5331.35 4348.67,5356.72 4348.67,5387.96C4348.67,5419.2 4376.66,5444.56 4411.15,5444.56C4445.63,5444.56 4473.62,5419.2 4473.62,5387.96C4473.62,5356.72 4445.63,5331.35 4411.15,5331.35Z"/>
    </g>
</svg>
