<?xml version="1.0" encoding="UTF-8" standalone="no"?>
<!DOCTYPE svg PUBLIC "-//W3C//DTD SVG 1.1//EN" "http://www.w3.org/Graphics/SVG/1.1/DTD/svg11.dtd">
<svg width="100%" height="100%" viewBox="0 0 630 512" version="1.1" xmlns="http://www.w3.org/2000/svg" xmlns:xlink="http://www.w3.org/1999/xlink" xml:space="preserve" xmlns:serif="http://www.serif.com/" style="fill-rule:evenodd;clip-rule:evenodd;stroke-linejoin:round;stroke-miterlimit:2;">
    <g transform="matrix(0.248171,0,0,0.248171,-893.563,-1132.66)">
        <path d="M4854.73,4767.34C4947.97,4822.18 5021.11,4882.81 5063.78,4921.55C5063.8,4812.85 5063.88,4730.58 5064.06,4709.6C5064.59,4647.09 5139.52,4570.3 5243.4,4564.62C5498.19,4550.7 6151.61,4786.78 6138.98,5540.14C6137.67,5617.79 6081.23,5687.76 6007.81,5693.48C5979.6,5695.68 5284.11,5694.05 5105.54,5693.59L5105.54,5694.61C5105.54,5694.61 5036.12,5694.32 4930.73,5693.89C4966.12,5679.45 4991.08,5644.68 4991.08,5604.12C4991.08,5550.63 4947.65,5507.2 4894.15,5507.2L4788.08,5507.2L4788.08,5314.55C4788.08,5261.06 4744.65,5217.62 4691.15,5217.62C4637.66,5217.62 4594.23,5261.06 4594.23,5314.55L4594.23,5596.93C4594.23,5633.49 4614.52,5665.35 4644.44,5681.86C4650.24,5686.19 4656.54,5689.88 4663.24,5692.84C4550.17,5692.4 4429.12,5691.94 4317.89,5691.55C4350.45,5675.92 4372.95,5642.63 4372.95,5604.12C4372.95,5550.63 4329.52,5507.2 4276.03,5507.2L4181.42,5507.2L4181.42,5312.46C4181.42,5258.97 4137.99,5215.54 4084.49,5215.54C4031,5215.54 3987.57,5258.97 3987.57,5312.46L3987.57,5594.85C3987.57,5595.28 3987.57,5595.7 3987.58,5596.13C3987.36,5598.77 3987.25,5601.43 3987.25,5604.12C3987.25,5641.91 4008.93,5674.68 4040.51,5690.66C3994.59,5690.54 3958.45,5690.47 3936.02,5690.47C3911.73,5690.47 3845.78,5694.61 3843.25,5750.73C3839.39,5835.96 3845.03,5989.86 3845.78,6090.74C3846.81,6227.65 4025.21,6375.12 4085.88,6374.67C4154.77,6374.15 4209.08,6386.27 4334.72,6374.67C4387.14,6369.83 4385.28,6337.83 4385.28,6318.16L4385.28,6105.32C4385.28,6077.16 4295.45,6037.6 4295.45,6150.83C4295.45,6240.46 4127.21,6275.32 4073.65,6177.06C4043.57,6121.89 4063.37,5914.09 4185.94,5855.46C4493.18,5708.51 4617.53,5985.93 4617.53,6019.68C4617.53,6130.41 4618.13,6172.77 4618.13,6360.04C4618.13,6465.61 4520.65,6624.62 4364.58,6626.63C4276.28,6627.77 4303.26,6626.63 4085.88,6626.63C3834.69,6626.63 3604.39,6303.03 3604.39,6105.32L3604.39,5498.2C3604.39,5299.52 3816.09,4808.46 4235.08,4675.9C4237.43,4674.92 4239.68,4674.18 4241.83,4673.68C4271.45,4666.82 4294.06,4660.09 4325.14,4653.67C4327.35,4653.21 4329.81,4652.81 4332.48,4652.46C4357.15,4648.33 4382.43,4645.43 4408.33,4643.85C4462.12,4640.58 4514.76,4644.72 4565.48,4654.22C4565.45,4654.25 4565.42,4654.28 4565.4,4654.31C4568.59,4654.9 4594.42,4659.73 4630.98,4669.73C4631.01,4669.7 4631.03,4669.68 4631.06,4669.65C4692.43,4686.99 4750.26,4711.37 4803.01,4738.72C4803.01,4738.73 4803,4738.73 4803,4738.73L4854.72,4767.27L4854.73,4767.34ZM5483.73,4836.98C5348.06,4836.98 5237.91,4947.12 5237.91,5082.79C5237.91,5218.46 5348.06,5328.61 5483.73,5328.61C5619.4,5328.61 5729.54,5218.46 5729.54,5082.79C5729.54,4947.12 5619.4,4836.98 5483.73,4836.98ZM5483.77,4996.26C5533.36,4996.26 5573.63,5036.53 5573.63,5086.12C5573.63,5135.72 5533.36,5175.98 5483.77,5175.98C5434.17,5175.98 5393.91,5135.72 5393.91,5086.12C5393.91,5036.53 5434.17,4996.26 5483.77,4996.26Z"/>
    </g>
</svg>
