<?xml version="1.0" encoding="UTF-8" standalone="no"?>
<!DOCTYPE svg PUBLIC "-//W3C//DTD SVG 1.1//EN" "http://www.w3.org/Graphics/SVG/1.1/DTD/svg11.dtd">
<svg width="100%" height="100%" viewBox="0 0 522 512" version="1.1" xmlns="http://www.w3.org/2000/svg" xmlns:xlink="http://www.w3.org/1999/xlink" xml:space="preserve" xmlns:serif="http://www.serif.com/" style="fill-rule:evenodd;clip-rule:evenodd;stroke-linejoin:round;stroke-miterlimit:2;">
    <g transform="matrix(-0.537764,0,0,0.539507,521.975,-22.7149)">
        <path d="M180.5,141.5L180.6,141.6C164.4,155.3 150.1,170.1 137.9,184.7L48.2,132.4C35.6,125.1 19.8,127.1 9.5,137.3C-0.8,147.5 -3,163.3 4.2,175.9L50,256L4.2,336.1C-3,348.7 -0.9,364.5 9.4,374.7C19.7,384.9 35.6,386.9 48.1,379.6L137.8,327.4C150,342 164.3,356.8 180.5,370.5C219.7,403.5 272.6,432 336,432C399.4,432 452.3,403.5 491.5,370.4C530.6,337.4 558.4,298 572.5,270.6C577.2,261.4 577.2,250.5 572.5,241.3C558.4,213.9 530.6,174.5 491.5,141.5C452.3,108.5 399.4,80 336,80C272.6,80 219.7,108.5 180.5,141.5ZM448,256C448,273.555 433.555,288 416,288C398.445,288 384,273.555 384,256C384,238.445 398.445,224 416,224C433.555,224 448,238.445 448,256ZM620.002,119.427C598.664,119.427 581.34,136.75 581.34,158.089C581.34,179.427 598.664,196.751 620.002,196.751C641.341,196.751 658.664,179.427 658.664,158.089C658.664,136.75 641.341,119.427 620.002,119.427ZM770.984,42.103C749.646,42.103 732.322,59.426 732.322,80.765C732.322,102.103 749.646,119.427 770.984,119.427C792.322,119.427 809.646,102.103 809.646,80.765C809.646,59.426 792.322,42.103 770.984,42.103ZM963.688,239.885C963.728,218.596 946.477,201.28 925.188,201.24C903.899,201.2 886.583,218.451 886.543,239.74C886.543,239.74 887.032,340.735 861.983,399.857C828.105,479.816 784.912,530.974 763.43,575.282C750.734,601.47 742.163,648.156 737.821,700.97C728.625,812.824 735.221,953.952 735.221,953.952C736.221,975.217 754.297,991.671 775.562,990.671C796.827,989.672 813.281,971.596 812.281,950.33C812.281,950.33 805.872,814.748 814.706,707.291C818.092,666.111 822.948,629.356 832.847,608.937C854.744,563.771 898.482,511.459 933.015,429.952C962.786,359.685 963.688,239.885 963.688,239.885ZM601.15,628.289C591.74,673.773 585.211,715.526 585.222,729.288L585.388,952.575C585.404,973.863 602.7,991.134 623.989,991.118C645.278,991.102 662.549,973.806 662.533,952.517L662.366,729.23C662.348,704.318 687.388,572.572 707.847,529.25C732.535,476.973 737.933,388.44 737.933,388.44C739.083,367.183 722.759,348.99 701.501,347.84C680.243,346.69 662.051,363.015 660.901,384.272C660.901,384.272 657.693,454.797 638.09,496.307C632.095,509 625.77,528.211 619.661,550.321C580.266,522.018 583.748,467.323 583.748,467.323C584.68,446.055 568.169,428.031 546.901,427.099C525.632,426.167 507.609,442.678 506.677,463.946C506.677,463.946 502.741,583.546 601.15,628.289Z"/>
    </g>
</svg>
