<?xml version="1.0" standalone="no"?>
<!DOCTYPE svg PUBLIC "-//W3C//DTD SVG 1.1//EN" "http://www.w3.org/Graphics/SVG/1.1/DTD/svg11.dtd">
<svg xmlns="http://www.w3.org/2000/svg">
<metadata>Copyright (C) 2025 by original authors @ fontello.com</metadata>
<defs>
<font id="fontello" horiz-adv-x="1000" >
<font-face font-family="fontello" font-weight="400" font-stretch="normal" units-per-em="1000" ascent="850" descent="-150" />
<missing-glyph horiz-adv-x="1000" />
<glyph glyph-name="aquarium" unicode="&#xe800;" d="M90 587c28 44 63 83 104 116-31 7-55 34-55 68l0 10c0 38 31 69 70 69l615 0c39 0 70-31 70-69l0-10c0-33-23-60-53-68 35-28 65-61 92-97-8-1-17 0-26 1-240 40-346-26-612-47-72-5-151 12-205 27z m879-39c39-72 60-154 60-241 0-200-114-373-281-457l-319 0 0 68c0 10-5 42-13 77 76 34 73 126 73 126-1 16-15 29-31 28-16-1-29-14-28-31 0 0 2-41-28-63-4 17-9 31-14 41-15 32-17 86-17 86-1 16-15 29-31 28-17-1-29-15-28-31 0 0 4-68 23-108 15-33 35-134 35-153l0-68-54 0c-1 29-2 60-4 89-3 41-10 77-20 97-16 34-49 73-75 134-19 45-19 123-19 123 0 16-13 29-30 29-16 0-29-13-29-30 0 0 1-91 24-145 26-62 59-102 76-137 8-16 11-44 14-75 2-22 3-45 3-68-149 89-250 253-250 440 0 80 18 155 51 222 59-17 156-40 243-33 260 20 362 86 596 47 27-4 52-2 73 5z m-231-180c-30 25-70 47-119 47-48 0-89-22-119-47-30-26-51-56-62-77-3-7-3-15 0-22 11-21 32-51 62-76 30-26 71-48 119-48 49 0 89 22 119 47 13 11 24 22 33 33l69-39c9-6 22-5 29 3 8 8 10 20 4 30l-35 61 35 61c6 10 4 22-4 30-8 8-20 9-29 4l-69-40c-9 11-20 22-33 33l0 0z m-204-88c0 14 11 25 24 25 14 0 25-11 25-25 0-13-11-24-25-24-13 0-24 11-24 24z m-132 105c-16 0-30-14-30-30 0-16 14-30 30-30 16 0 30 14 30 30 0 16-14 30-30 30z m-115 59c-17 0-30-13-30-30 0-16 13-29 30-29 16 0 29 13 29 29 0 17-13 30-29 30z" horiz-adv-x="1029" />

<glyph glyph-name="camelion" unicode="&#xe801;" d="M608 752c45-27 81-56 101-75 0 52 0 92 0 102 1 31 37 68 87 71 124 7 441-108 434-473 0-38-28-72-63-74-14-1-351-1-437 0l0-1c0 0-34 0-85 0 17 7 29 24 29 44 0 26-21 47-47 47l-51 0 0 93c0 26-21 47-47 47-26 0-47-21-47-47l0-137c0-17 10-33 24-41 3-2 6-4 9-5-55 0-113 0-167 1 16 7 26 23 26 42 0 26-21 47-47 47l-45 0 0 94c0 26-21 47-47 47-26 0-47-21-47-47l0-137c0 0 0 0 0 0 0-1-1-3-1-4 0-18 11-34 26-42-22 0-39 0-50 0-12 0-44-2-45-29-2-41 1-116 1-165 0-66 87-138 116-138 34 1 60-5 121 0 25 3 24 18 24 28l0 103c0 14-43 33-43-22 0-44-82-60-108-13-14 27-5 128 55 156 149 71 209-63 209-80 0-53 0-74 0-165 0-51-47-128-123-129-42 0-29 0-135 0-121 0-233 157-233 253l0 294c0 97 103 335 306 399 1 0 2 1 3 1 14 3 25 6 40 10 1 0 3 0 4 0 12 2 24 4 37 4 26 2 51 0 76-5 0 0 0 0 0 0 1 0 14-2 31-7 1 0 1 0 1 0 29-9 57-20 83-34 0 0 0 0 0 0l25-13 0 0z m305-34c-66 0-119-54-119-119 0-66 53-120 119-120 66 0 119 54 119 120 0 65-53 119-119 119z m0-77c24 0 43-20 43-44 0-24-19-44-43-44-24 0-44 20-44 44 0 24 20 44 44 44z" horiz-adv-x="1230" />

<glyph glyph-name="fahne" unicode="&#xe802;" d="M125 788c0 34-28 62-62 62s-63-28-63-62l0-63 0-594 0-219c0-34 28-62 63-62s62 28 62 62l0 251 126 31c80 20 165 11 239-26 86-43 186-49 277-15l67 26c25 9 41 32 41 58l0 484c0 45-47 74-87 54l-19-9c-91-45-197-45-288 0-68 34-147 43-221 24l-135-34 0 32z" horiz-adv-x="875" />

<glyph glyph-name="fisch" unicode="&#xe803;" d="M538 775c-21 16-49 17-71 3s-33-40-28-65l19-95c-38-18-72-39-103-62-30-22-56-46-79-71l-182 106c-24 15-55 11-75-9s-25-51-11-76l90-156-90-156c-14-25-10-56 11-76s51-24 75-9l182 106c23-24 49-49 79-71 31-23 65-44 103-62l-19-95c-5-25 6-51 28-65s50-12 71 3l151 114c107 8 198 53 268 105 77 57 131 126 159 175 12 19 12 43 0 62-28 49-83 118-159 175-70 53-161 98-268 105l-151 114z m212-425a63 63 0 1 0 125 0 63 63 0 1 0-125 0z" horiz-adv-x="1125" />

<glyph glyph-name="fisch-einfach" unicode="&#xe804;" d="M353 574c76 64 179 120 303 120s227-56 304-120c76-65 131-142 158-195 9-18 9-39 0-57-27-54-82-131-158-195-77-65-180-121-304-121s-227 56-303 120c-32 27-60 56-84 85l-175-102c-24-15-55-11-76 9s-24 51-10 76l90 156-90 156c-14 25-10 56 11 76s51 24 75 9l175-102c24 29 52 58 84 84z m522-224a63 63 0 1 1-125 0 63 63 0 1 1 125 0z" horiz-adv-x="1125" />

<glyph glyph-name="fisch-freinatur" unicode="&#xe805;" d="M830 745l0 0c17-14 32-30 45-45l94 55c13 8 30 5 41-5 10-11 13-28 5-41l-48-84 48-85c8-13 5-30-5-40-11-11-28-13-41-6l-94 55c-13-15-28-31-45-45-41-35-97-65-163-65-67 0-123 30-164 65-41 35-70 76-85 105-5 10-5 21 0 31 15 29 44 71 85 105 41 35 97 65 164 65 66 0 122-30 163-65z m-281-120c0-19 15-34 34-34 18 0 33 15 33 34 0 18-15 33-33 33-19 0-34-15-34-33z m-181 144c23 0 41-19 41-41 0-23-18-41-41-41-22 0-40 18-40 41 0 22 18 41 40 41z m-158 81c22 0 40-18 40-41 0-22-18-40-40-40-23 0-41 18-41 40 0 23 18 41 41 41z m-203-208c0 22 18 40 41 40 22 0 40-18 40-40 0 0 0-107 26-169 36-84 81-138 104-185 13-27 22-77 27-132 9-118 2-267 2-267-1-22-20-40-42-39-22 1-40 21-39 43 0 0 7 143-2 256-4 44-9 82-19 104-23 47-69 102-105 188-32 74-33 201-33 201z m381-410c10-48 17-92 17-106l0-235c0-23-18-41-41-41-22 0-40 18-40 41l0 235c0 26-26 165-48 211-26 55-32 148-32 148-1 23 16 42 39 43 22 1 41-16 42-39 0 0 4-74 24-118 7-13 13-33 20-56 41 29 37 87 37 87-1 22 17 41 39 42 22 1 41-16 42-38 0 0 4-126-99-174z" horiz-adv-x="1020" />

<glyph glyph-name="freigaenger-katze" unicode="&#xe806;" d="M563 756c0 52 42 94 93 94l188 0c52 0 94-42 94-94l0-281 78 0 0 141c0 26 21 47 47 47s46-21 46-47l0-141 47 0c52 0 94-42 94-94l0-437c0-52-42-94-94-94l-312 0-188 0c-51 0-93 42-93 94l0 812z m125-62l0-63c0-17 14-31 31-31l62 0c17 0 32 14 32 31l0 63c0 17-15 31-32 31l-62 0c-17 0-31-14-31-31z m31-156c-17 0-31-15-31-32l0-62c0-17 14-31 31-31l62 0c17 0 32 14 32 31l0 62c0 17-15 32-32 32l-62 0z m-31-219l0-63c0-17 14-31 31-31l62 0c17 0 32 14 32 31l0 63c0 17-15 31-32 31l-62 0c-17 0-31-14-31-31z m343 31c-17 0-31-14-31-31l0-63c0-17 14-31 31-31l63 0c17 0 31 14 31 31l0 63c0 17-14 31-31 31l-63 0z m-31-219l0-62c0-17 14-31 31-31l63 0c17 0 31 14 31 31l0 62c0 17-14 32-31 32l-63 0c-17 0-31-15-31-32z m-562 407c0-12-2-22-4-32 39-27 66-74 66-125 0-88-70-156-156-156l-31 0 0-313c0-35-30-62-63-62-35 0-62 27-62 62l0 313-32 0c-88 0-156 68-156 156 0 51 25 98 65 125-2 10-2 20-2 32 0 103 82 187 187 187 104 0 188-84 188-187z" horiz-adv-x="1250" />

<glyph glyph-name="herz" unicode="&#xe807;" d="M93 263l353-329c15-14 34-22 54-22s40 8 54 22l353 329c59 56 93 133 93 214v12c0 136-99 252-233 275-89 15-180-14-244-78l-23-23-23 23c-64 64-155 93-244 78-134-23-233-139-233-275v-12c0-81 34-158 93-214z" horiz-adv-x="1000" />

<glyph glyph-name="herz-hell" unicode="&#xe808;" d="M441-65l-5 5-342 318c-60 56-94 134-94 215v7c0 137 98 255 233 281 77 15 156-3 218-47 18-12 34-27 49-43 8 9 17 18 26 26 8 6 15 12 23 17 0 0 0 0 0 0 63 44 141 62 218 47 135-25 233-144 233-281v-7c0-81-34-159-94-215l-342-318-5-5c-16-14-37-23-59-23s-43 8-59 23z m26 632c-1 0-1 1-2 2l-35 39c0 0 0 0 0 0 0 0 0 0 0 0-45 51-113 74-180 61-91-17-156-96-156-189v-7c0-55 23-108 64-146l342-318 342 318c41 38 64 91 64 146v7c0 92-65 172-156 189-67 13-135-10-180-61 0 0 0 0 0 0s0 0 0 0l-35-39c-1-1-1-2-2-2-9-9-21-14-33-14s-24 5-33 14z" horiz-adv-x="1000" />

<glyph glyph-name="hund" unicode="&#xe809;" d="M605 540l45 271c4 23 23 39 46 39 14 0 28-7 37-19l33-43h101c25 0 49-10 67-28l35-35h109c26 0 47-21 47-47v-47c0-86-70-156-156-156h-63-31-42l-10-60-218 125z m208-190l0-438c0-34-28-62-63-62h-62c-35 0-63 28-63 62v226c-47-24-100-38-156-38s-110 14-156 38v-226c0-34-28-62-63-62h-62c-35 0-63 28-63 62v450c-56 21-100 69-116 130l-7 30c-8 34 12 68 46 76s67-12 75-45l8-31c7-27 32-47 60-47h59 31 312l220-125z m93 344a31 31 0 1 1-62 0 31 31 0 1 1 62 0z" horiz-adv-x="1125" />

<glyph glyph-name="hund-rollstuhl" unicode="&#xe80a;" d="M478 132c2-14 4-28 4-43 0-132-107-239-238-239-131 0-237 107-237 239 0 118 84 216 195 236 92 108 187 160 265 184l-18-126-126-68c17-6 33-14 48-23l117 62 0 0 0 0 24 167c14 2 27 4 39 5l-19-402c-18 1-37 4-54 8z m-234 58c-55 0-99-45-99-101 0-55 44-100 99-100 55 0 100 45 100 100 0 56-45 101-100 101z m684 163l0-433c0-37-30-67-67-67l-67 0c-37 0-67 30-67 67l0 243c-46-23-97-37-151-40l19 405 7 0 0 1 59 0c54 4 98 30 153 114l119 186c12 19 35 26 55 17 13-5 23-17 26-31l13-52 91-39c22-10 39-28 48-51l18-45 97-42c23-10 34-37 24-60l-18-42c-33-78-122-114-199-80l-121 52-5-8c-20-35-34-57-34-95z m188 271c7 16 0 34-16 41-15 6-33-1-40-16-6-16 1-34 16-41 16-6 34 1 40 16z" horiz-adv-x="1314" />

<glyph glyph-name="kaltwasser-fische" unicode="&#xe80b;" d="M875 663a63 63 0 1 1-125 0 63 63 0 1 1 125 0z m-250 0a188 188 0 1 0 375 0 188 188 0 1 0-375 0z m-344 62c-51 0-93-42-93-94l0-321c0-34-14-62-30-83-21-27-33-60-33-96 0-86 70-156 156-156s157 70 157 156c0 36-13 69-33 96-16 21-30 49-30 83l0 321c0 52-42 94-94 94z m-218-94c0 121 97 219 218 219s219-98 219-219l0-321c0 0 0 0 0-1 1-1 2-3 4-5 37-48 59-108 59-173 0-155-126-281-282-281s-281 126-281 281c0 65 22 125 59 172 2 3 3 5 3 6 0 0 1 1 1 1l0 321z m312-500c0-51-42-93-94-93s-93 42-93 93c0 41 26 76 62 89l0 99c0 17 14 31 31 31s32-14 32-31l0-99c36-13 62-48 62-89z" horiz-adv-x="1000" />

<glyph glyph-name="kaninchen" unicode="&#xe80c;" d="M725-12c-7-4-18-11-22-13-2-1-4-3-6-4-8-3-17-6-28-8-15 14-33 24-56 24l-105 0c52 60 61 114 50 156-12 46-50 80-89 96-27 12-55 15-76 9-10-2-16-13-14-22 3-10 13-16 23-14 17 5 41 0 63-12 33-17 63-51 60-96-3-35-24-76-73-122l-37-33 197 0c25 0 46-26 46-58 0-1 0-1 0-2l-403 0-23 0-1 0c0 0-3 2-3 2l-35 25-16-28 0 0c0 0 0 0 0 0-17-23-44-38-75-38-51 0-93 42-93 93 0 52 42 94 93 94l0 0c-64 237 99 492 490 388 5 32 28 66 28 66 0 0 25 18 19 25-173 181-101 325-101 325 185-37 253-255 253-255 0 0 73 0 121-21 78-35 141-150 141-217 0-95-158-78-158-78 0 0-24-139-73-182l30-142 14 0c25 0 45-26 46-57l-166 0-21 99z m114 488c-17 0-31-13-31-30 0-17 14-30 31-30 16 0 30 13 30 30 0 17-14 30-30 30z" horiz-adv-x="1064" />

<glyph glyph-name="katze" unicode="&#xe80d;" d="M625 475h33c44-75 124-125 217-125 22 0 43 3 63 8v-8-62-376c0-34-28-62-63-62s-62 28-62 62v276l-266-213h109c35 0 63-28 63-63s-28-62-63-62h-281c-103 0-187 84-187 188v436c0 32-24 58-55 62l-16 2c-34 4-58 36-54 70s36 58 70 54l15-2c94-12 165-91 165-186v-167c67 101 182 168 312 168z m313-52v0c-20-7-41-10-63-10-55 0-105 24-140 62h0c-7 8-13 17-19 26-18 29-28 63-28 99v0 188 39 2c0 12 9 21 20 21h1c6 0 12-3 16-8l0 0 25-34 53-70 10-13h125l9 13 53 70 25 34 0 0c4 5 10 8 16 8h1c11 0 21-9 21-21v-2-39-188c0-34-9-66-25-93-22-39-58-69-100-84z m-94 177a31 31 0 1 1-63 0 31 31 0 1 1 63 0z m94-31a31 31 0 1 1 0 62 31 31 0 1 1 0-62z" horiz-adv-x="1125" />

<glyph glyph-name="katze-rollstuhl" unicode="&#xe80e;" d="M532 102c0 0 0 0 0 0l17 374 8 0 47 1 55 3c43-74 125-129 217-129 21 0 42 3 62 8l0-444c0-34-28-62-62-62-35 0-62 28-62 62l0 230c0 0-104-43-282-43 0 0 0 0 0 0z m-91 9c2-13 3-26 3-40 0-122-99-221-221-221-122 0-221 99-221 221 0 109 79 199 182 218 86 100 174 148 246 170l-17-117-117-62c16-6 31-13 45-22l109 57 0 0 1 0 22 155c13 2 25 4 36 5l-18-372c-17 1-34 4-50 8z m-218 53c-51 0-93-42-93-93 0-51 42-93 93-93 51 0 93 42 93 93 0 51-42 93-93 93z m715 261c-19-7-40-11-62-11-55 0-105 24-140 62-7 8-13 17-19 26-18 29-28 63-28 99l0 228c0 12 9 21 21 21l0 0c6 0 12-3 16-8l0 0 25-33 53-71 10-13 124 0 10 13 53 71 24 33 0 0c4 5 10 8 17 8l0 0c12 0 21-9 21-21l0-228c0-34-9-66-25-93-22-39-57-69-100-83z m0 145c17 0 31 14 31 31 0 17-14 31-31 31-17 0-31-14-31-31 0-17 14-31 31-31z m-93 31c0 17-14 31-31 31-18 0-32-14-32-31 0-17 14-31 32-31 17 0 31 14 31 31z" horiz-adv-x="1064" />

<glyph glyph-name="lupe-filter" unicode="&#xe80f;" d="M813 444c0-90-30-173-79-240l248-247c24-25 24-64 0-89s-64-24-89 0l-247 248c-67-50-150-78-240-78-224 0-406 181-406 406s182 406 406 406 407-182 407-406z m-407-281a281 281 0 1 1 0 562 281 281 0 1 1 0-562z" horiz-adv-x="1000" />

<glyph glyph-name="mars" unicode="&#xe810;" d="M566 759c7 17 24 29 43 29h219c26 0 47-21 47-47v-219c0-19-11-36-29-43s-38-4-51 10l-65 65-103-103c38-55 61-122 61-195 0-190-154-344-344-344s-344 154-344 344 154 344 344 344c72 0 139-22 195-60l102 102-65 65c-13 14-17 34-10 52z m215-65l0 0h0v0z m-437-656a219 219 0 1 1 0 437 219 219 0 1 1 0-437z" horiz-adv-x="875" />

<glyph glyph-name="notfall" unicode="&#xe811;" d="M222 99l0 253c0 157 127 285 285 285 157 0 284-128 284-285l0-253-569 0z m313 351c0 0 53-11 74-76 6-20 27-31 46-25 20 7 31 27 24 47-36 114-132 127-132 127-20 4-39-10-43-30-3-21 11-40 31-43z m-457-600l0 77c0 53 43 97 96 97l665 0c53 0 96-44 96-97l0-77-857 0z m31 536c21 0 37-17 37-37 0-21-16-38-37-38l-69 0c-20 0-37 17-37 38 0 20 17 37 37 37l69 0z m144 264c14-15 14-38-1-52-15-15-39-14-53 1l-47 50c-14 15-14 38 1 52 15 14 38 14 53-1l47-50z m216 163c0 20 17 37 38 37 20 0 37-17 37-37l0-69c0-21-17-37-37-37-21 0-38 16-38 37l0 69z m289-163l47 50c14 15 38 15 53 1 15-14 15-37 1-52l-47-50c-15-15-38-16-53-1-15 14-15 37-1 52z m213-264c20 0 37-17 37-37 0-21-17-38-37-38l-69 0c-21 0-37 17-37 38 0 20 16 37 37 37l69 0z" horiz-adv-x="1008" />

<glyph glyph-name="pferd" unicode="&#xe812;" d="M875 385l0 153 31 0 19-39c25-49 83-71 134-51 40 17 66 55 66 98l0 148c0 37-16 71-42 94l11 0c17 0 31 14 31 31s-14 31-31 31l-156 0-63 0c-138 0-250-112-250-250l-187 0-41 0-106 0c-60 0-113-32-142-80-84-11-149-83-149-170l0-109c0-26 21-47 47-47s47 21 47 47l0 109c0 26 13 49 32 64 4-26 13-50 27-72l55-82c16-25 13-56-2-82-33-54-41-121-20-183l34-102c9-26 33-43 60-43l66 0c42 0 72 42 59 82l-41 122c-4 13-1 26 9 36l25 25c25 25 40 60 40 97 0 4 0 9-1 13l164-47c8-2 16-4 24-5l0-261c0-34 28-62 63-62l62 0c35 0 63 28 63 62l0 321c37 38 61 90 62 148 0 0 0 0 0 0l0 4z m94 340a31 31 0 1 0 0-62 31 31 0 1 0 0 62z" horiz-adv-x="1125" />

<glyph glyph-name="schildkroete" unicode="&#xe813;" d="M1002 424c0 7-2 13-4 19-13 34-28 67-45 98 4 93 81 168 176 168 97 0 189-78 189-234 0-6-17-29-22-32-273-212-314-220-314-308 0-8-1-13-1-15l0-17c0-3 1-6 1-9l0-163c0-45-37-81-82-81l-75 0c-45 0-81 36-81 81l0 59-1 0c0 1 0 1 0 2l0 64c-96-38-199-56-295-59l0-66c0-45-37-81-82-81l-75 0c-44 0-81 36-81 81l0 93c-49 14-90 32-121 54-19 13-45 8-69 35-26 28 13 68 38 68 121-29 234-37 336-32 47 1 93 7 136 14 280 47 457 186 472 217 5 10 6 23 0 44z m112 141c-22 0-39-17-39-39 0-22 17-39 39-39 22 0 39 17 39 39 0 22-17 39-39 39z m-941 133l18-107-67 17c13 33 29 63 49 90z m-64-136l87-23-95-318c-13 3-26 6-40 9 10 110 19 202 35 281 4 18 8 34 13 51z m481 276l26-193-185-117-176 46-30 178c13 12 28 22 44 33 86 55 204 83 321 53z m274-506l-181 293 115 74c2 1 4 2 5 3 64-78 98-169 116-204 20-38 31-65 36-85 1-4 2-9 3-12-11-9-49-42-94-69z m-96 408c-3-1-5-2-7-4l-89-56-19 136c31-14 61-32 89-54 9-7 18-15 26-22z m-255-531l-41 284 162 102 180-290c-77-39-179-76-301-96z m-354 1l94 314 160-42 41-280c-90-10-188-9-295 8z" horiz-adv-x="1318" />

<glyph glyph-name="layout-kachel" unicode="&#xe814;" d="M286 154v-108q0-22-16-37t-38-16h-178q-23 0-38 16t-16 37v108q0 22 16 38t38 15h178q23 0 38-15t16-38z m0 285v-107q0-22-16-38t-38-15h-178q-23 0-38 15t-16 38v107q0 23 16 38t38 16h178q23 0 38-16t16-38z m357-285v-108q0-22-16-37t-38-16h-178q-23 0-38 16t-16 37v108q0 22 16 38t38 15h178q23 0 38-15t16-38z m-357 571v-107q0-22-16-38t-38-16h-178q-23 0-38 16t-16 38v107q0 22 16 38t38 16h178q23 0 38-16t16-38z m357-286v-107q0-22-16-38t-38-15h-178q-23 0-38 15t-16 38v107q0 23 16 38t38 16h178q23 0 38-16t16-38z m357-285v-108q0-22-16-37t-38-16h-178q-22 0-38 16t-16 37v108q0 22 16 38t38 15h178q23 0 38-15t16-38z m-357 571v-107q0-22-16-38t-38-16h-178q-23 0-38 16t-16 38v107q0 22 16 38t38 16h178q23 0 38-16t16-38z m357-286v-107q0-22-16-38t-38-15h-178q-22 0-38 15t-16 38v107q0 23 16 38t38 16h178q23 0 38-16t16-38z m0 286v-107q0-22-16-38t-38-16h-178q-22 0-38 16t-16 38v107q0 22 16 38t38 16h178q23 0 38-16t16-38z" horiz-adv-x="1000" />

<glyph glyph-name="tatze-schraeg" unicode="&#xe815;" d="M116 687c53 9 106-42 118-114 11-71-23-136-77-145-53-8-106 43-118 114-11 72 23 137 77 145z m294 154c65 4 120-63 123-150 2-86-49-160-115-163-65-4-121 63-123 150-2 86 49 159 115 163z m402-146c54-38 55-125 2-194-52-69-138-94-191-56-54 38-55 125-3 194 53 69 139 94 192 56z m142-319c38-39 26-110-27-159-52-49-126-57-164-19-38 39-26 110 27 159 53 49 126 57 164 19z m-909-142c37 43 120 120 159 136 35 15 118 76 244 62 164-17 250-247 254-315 4-69 45-233-62-256-95-21-237 142-305 156-69 14-275 12-313 72-18 29-28 85 23 145z" horiz-adv-x="977" />

<glyph glyph-name="venus" unicode="&#xe816;" d="M156 506a219 219 0 1 0 438 0 219 219 0 1 0-438 0z m282-338c160 30 281 170 281 338 0 190-154 344-344 344s-344-154-344-344c0-168 122-308 282-338v-68h-63c-35 0-62-28-62-62s27-63 62-63h63v-63c0-34 27-62 62-62s63 28 63 62v63h62c35 0 63 28 63 63s-28 62-63 62h-62v68z" horiz-adv-x="750" />

<glyph glyph-name="vogel" unicode="&#xe817;" d="M229-115l-9-13c-17-23-49-29-72-13-18 13-25 34-21 54l-103 0c-10 0-19 8-19 19 0 10 9 18 19 18l125 0 46 66 57 80c366-84 605 125 574 356-2 12-13 20-24 18-12-1-21-12-19-24 11-82-22-160-82-218-89-86-286-144-443-76 0 0-1 1-1 1 114 317 364 462 364 462 9 134 237 324 438 189 6-4 12-9 17-13 4-2 13-9 22-20-14-5-28-13-41-23-36-27-64-65-64-65l-11-16 16-11c0 0 41-27 74-87-34-15-72-18-92-20-29-3-36-20-34-45 16-154-6-434-410-505l11-28c2-7 3-14 2-21l250 0c10 0 19-8 19-18 0-11-9-19-19-19l-508 0-14-21c-10-15-30-19-45-9-1 1-2 1-3 2z m88 65l153 0-14 34c-38-7-81-14-131-21l-8-13z m581 774c-16 0-29-13-29-29 0-17 13-30 29-30 17 0 30 13 30 30 0 16-13 29-30 29z m241 13c49-46 50-137 31-189-1-4-8-23-17-25-13 7-17 15-36 38-26 59-62 96-82 114 10 12 26 29 44 43 17 13 37 25 55 20 2-1 4-1 5-1z" horiz-adv-x="1182" />

<glyph glyph-name="warmwasser-fische" unicode="&#xe818;" d="M813 725a63 63 0 1 0 0-125 63 63 0 1 0 0 125z m0-250a188 188 0 1 1 0 375 188 188 0 1 1 0-375z m-625 156c0 52 42 94 93 94s94-42 94-94l0-321c0-34 14-62 30-83 20-27 33-60 33-96 0-86-70-156-157-156s-156 70-156 156c0 36 12 69 33 96 16 21 30 49 30 83l0 321z m93 219c-121 0-218-98-218-219l0-321c0 0-1 0-1-1 0-1-1-3-3-5-37-48-59-108-59-173 0-155 126-281 281-281s282 126 282 281c0 65-22 125-59 172-2 3-3 5-4 6 0 0 0 1 0 1l0 321c0 121-98 219-219 219z m0-812c52 0 94 42 94 93 0 41-26 76-62 89l0 411c0 17-15 32-32 32s-31-15-31-32l0-411c-36-13-62-48-62-89 0-51 42-93 93-93z" horiz-adv-x="1000" />

<glyph glyph-name="wohnungskatze" unicode="&#xe819;" d="M125 538c0 138 112 250 250 250l500 0c138 0 250-112 250-250l0-66c-71-15-125-78-125-153l0-94-750 0 0 94c0 75-54 138-125 153l0 66z m938-219c0 41 26 75 62 88 10 4 20 6 31 6 52 0 94-42 94-94l0-344c0-35-28-63-62-63l-63 0c-35 0-62 28-62 63l-875 0c0-35-28-63-63-63l-62 0c-35 0-63 28-63 63l0 344c0 52 42 94 94 94 11 0 21-2 31-6 36-13 63-47 63-88l0-94 0-62 62 0 750 0 63 0 0 62 0 94z" horiz-adv-x="1250" />

<glyph glyph-name="zwei-kaninchen" unicode="&#xe81a;" d="M354 59l-166-2-35 19c-5-5-10-11-17-16-12-10-27-18-45-18-23 0-42 7-57 20-15 13-26 32-31 58-6 32 13 72 74 82-13 65-19 172 69 255 81 75 201 70 281 62 17 29 42 62 76 90-100 115-60 229-60 229 3 9 12 14 21 11 0 0 128-33 199-202 58-7 113-4 169-69 24-28 49-70 58-102 4-17 5-32 1-42-4-11-15-24-35-35-22-14-57-25-99-28 0-9-2-21-4-35 194-22 269-183 226-334l0 0c44 0 80-34 80-76 0-42-36-76-80-76-26 0-49 12-63 31 0 0-1 0-1 0l0 0-13 23-30-20c0-1-2-2-2-2l-1-1-20 1-341 0c0 0 0 1 0 1 0 26 17 47 39 47l167 0-32 27c-41 38-60 71-62 100-3 37 23 65 51 79 19 9 39 13 54 9 8-2 17 3 19 11 2 8-3 17-11 19-18 4-42 2-65-7-34-14-65-41-76-79-9-34-2-78 43-128l-90 0c-19 0-35-7-47-19-9 2-17 4-24 7-2 1-3 2-5 3-3 2-13 7-19 11l-18-81-140 0c0 25 17 46 38 46l12 0 26 116c-5 4-10 9-14 15z m56 428c-23 2-48 4-75 3-56-1-118-14-165-57-85-80-68-188-55-241l6-20-21-1c-47-3-67-24-63-45 4-17 10-30 20-39 9-8 21-11 34-11 9 0 17 5 23 9 12 10 19 21 19 21l8 14 56-29c0 0 65 1 139 2-21 45-30 99-30 99 0 0-135-13-135 65 0 54 54 148 120 176 42 18 104 18 104 18 0 0 4 14 15 36z m308-148c2 12 4 23 5 32-19 1-39 4-60 9-9 2-15 11-12 20 2 9 12 15 21 12 24-6 47-8 68-8 0 0 1 0 1 0 0 0 0 0 0 0 33 0 61 7 82 16 11 4 20 9 26 15 5 3 8 6 9 10 3 8-1 20-6 34-10 26-28 56-47 78-51 59-103 51-156 58l-11 1-3 9c-48 121-128 169-163 185-5-33-6-107 59-181 23 13 49 24 78 30 0 0 61-118-86-266-5-5 16-20 16-20 0 0 20-28 24-54 58 15 109 21 155 20z m-364 22c-14 0-26-11-26-25 0-13 12-24 26-24 14 0 25 11 25 24 0 14-11 25-25 25z m351 193c16 0 29-13 29-29 0-16-13-29-29-29-16 0-29 13-29 29 0 16 13 29 29 29z" horiz-adv-x="1059" />

<glyph glyph-name="layout-liste" unicode="&#xe81b;" d="M286 154v-108q0-22-16-37t-38-16h-178q-23 0-38 16t-16 37v108q0 22 16 38t38 15h178q23 0 38-15t16-38z m0 285v-107q0-22-16-38t-38-15h-178q-23 0-38 15t-16 38v107q0 23 16 38t38 16h178q23 0 38-16t16-38z m714-285v-108q0-22-16-37t-38-16h-535q-23 0-38 16t-16 37v108q0 22 16 38t38 15h535q23 0 38-15t16-38z m-714 571v-107q0-22-16-38t-38-16h-178q-23 0-38 16t-16 38v107q0 22 16 38t38 16h178q23 0 38-16t16-38z m714-286v-107q0-22-16-38t-38-15h-535q-23 0-38 15t-16 38v107q0 23 16 38t38 16h535q23 0 38-16t16-38z m0 286v-107q0-22-16-38t-38-16h-535q-23 0-38 16t-16 38v107q0 22 16 38t38 16h535q23 0 38-16t16-38z" horiz-adv-x="1000" />

<glyph glyph-name="laden-2" unicode="&#xe834;" d="M498 850c-114 0-228-39-320-116l0 0c173 140 428 130 588-31 134-134 164-332 89-495-10-29-5-50 12-68 21-20 61-23 84 0 3 3 12 15 15 24 71 180 33 393-112 539-99 98-228 147-356 147z m-409-274c-14 0-29-5-39-16-3-3-13-15-15-24-71-180-34-393 112-539 185-185 479-195 676-31l0 0c-173-140-428-130-589 31-134 134-163 333-89 495 11 29 6 50-12 68-11 11-27 17-44 16z" horiz-adv-x="1001" />

<glyph glyph-name="laden-1" unicode="&#xe839;" d="M855 9c-189-190-520-172-705 13-190 190-200 494-28 695 11 13 21 26 35 34 36 23 85 18 117-13 30-31 35-76 16-112-5-9-9-15-16-22-140-151-145-379-8-516 153-153 407-121 542 34 106 122 142 297 77 451-83 198-305 291-510 222l0 1c236 82 492-24 588-252 71-167 37-355-72-493-11-15-23-29-36-42z" horiz-adv-x="1000" />
</font>
</defs>
</svg>
