<?xml version="1.0" encoding="UTF-8" standalone="no"?>
<!DOCTYPE svg PUBLIC "-//W3C//DTD SVG 1.1//EN" "http://www.w3.org/Graphics/SVG/1.1/DTD/svg11.dtd">
<svg width="100%" height="100%" viewBox="0 0 640 512" version="1.1" xmlns="http://www.w3.org/2000/svg" xmlns:xlink="http://www.w3.org/1999/xlink" xml:space="preserve" xmlns:serif="http://www.serif.com/" style="fill-rule:evenodd;clip-rule:evenodd;stroke-linejoin:round;stroke-miterlimit:2;">
    <g transform="matrix(1.01046,0.00417944,-0.00421584,1.01926,31.2464,-28.8039)">
        <path d="M200.772,379.618C201.962,386.202 202.583,392.983 202.583,399.908C202.583,462.569 151.71,513.442 89.048,513.442C26.387,513.442 -24.486,462.569 -24.486,399.908C-24.486,344.109 15.854,297.658 68.936,288.152C113.037,236.74 158.087,212.053 195.516,200.713L186.791,260.842L126.595,292.738C134.811,295.62 142.596,299.421 149.827,304.017L205.461,274.537L205.439,274.495L205.863,274.556L217.359,195.334C223.839,194.102 229.978,193.256 235.717,192.704L226.759,383.51C217.899,382.853 209.22,381.54 200.772,379.618ZM89.048,352.273C62.758,352.273 41.414,373.618 41.414,399.908C41.414,426.198 62.758,447.542 89.048,447.542C115.339,447.542 136.683,426.198 136.683,399.908C136.683,373.618 115.339,352.273 89.048,352.273ZM416,274.752L416,480C416,497.7 401.7,512 384,512L352,512C334.3,512 320,497.7 320,480L320,364.8C298.125,376.011 273.591,382.736 247.61,383.839L256.616,192L260.291,192L260.291,191.357L288.401,191.357C314.281,189.716 335.086,177.017 361.56,137.442L418.478,48.991C424.148,40.183 435.402,36.74 445.058,40.9C451.302,43.59 455.874,49.014 457.469,55.622L463.468,80.413L506.84,99.097C517.412,103.652 525.74,112.272 530.004,122.992L538.569,144.348L585.188,164.431C596.26,169.2 601.33,181.945 596.56,193.017L587.953,212.996C572.103,249.791 529.462,266.755 492.667,250.904L434.977,226.052L432.47,229.942C422.855,246.208 416,256.852 416,274.752ZM506.193,146.192C509.34,138.885 505.918,130.283 498.611,127.135C491.304,123.987 482.701,127.41 479.554,134.716C476.406,142.023 479.828,150.626 487.135,153.774C494.442,156.922 503.045,153.499 506.193,146.192Z"/>
    </g>
</svg>
