<?xml version="1.0" encoding="UTF-8" standalone="no"?>
<!DOCTYPE svg PUBLIC "-//W3C//DTD SVG 1.1//EN" "http://www.w3.org/Graphics/SVG/1.1/DTD/svg11.dtd">
<svg width="100%" height="100%" viewBox="0 0 545 512" version="1.1" xmlns="http://www.w3.org/2000/svg" xmlns:xlink="http://www.w3.org/1999/xlink" xml:space="preserve" xmlns:serif="http://www.serif.com/" style="fill-rule:evenodd;clip-rule:evenodd;stroke-linejoin:round;stroke-miterlimit:2;">
    <g transform="matrix(0.187144,0,0,0.239854,-522.018,-1055.14)">
        <path d="M4772.38,6238.34C4754.3,6247.51 4722.31,6262.62 4712.66,6267.38C4707.53,6269.9 4701.7,6272.32 4695.27,6274.63C4674.92,6281.93 4648.56,6288.14 4619.27,6293.41C4579.69,6261.78 4528.02,6242.1 4467.39,6242.1L4178.9,6242.1C4321.59,6112.3 4346.53,5997.56 4315.81,5907.94C4282.17,5809.82 4179.75,5738.01 4072.02,5702.95C3997.81,5678.81 3921.47,5672.45 3863.51,5684.02C3836.38,5689.44 3819.99,5711.02 3826.94,5732.18C3833.88,5753.35 3861.54,5766.13 3888.66,5760.72C3936.12,5751.24 4000.55,5761.78 4060.33,5786C4152.13,5823.19 4234.22,5894.79 4225.33,5992.24C4218.5,6067.17 4159.99,6154.51 4024.95,6252.73L3923.69,6323.35L4462.68,6323.35C4531.94,6323.35 4588.18,6378.63 4588.18,6446.72C4588.18,6447.93 4588.16,6449.13 4588.12,6450.33L3487.13,6450.33L3423.49,6451.29L3421.77,6450.33C3421.77,6450.33 3413.2,6445.95 3413.2,6445.56L3317.65,6392.38L3274.64,6452.82L3274.64,6453.41C3274.42,6453.19 3274.21,6452.97 3273.99,6452.76C3227.46,6501.86 3152.72,6533.72 3068.53,6533.72C2927.58,6533.72 2813.15,6444.44 2813.15,6334.47C2813.15,6224.5 2927.58,6135.22 3068.53,6135.22L3069.2,6135.22C2893.24,5629.74 3338.59,5083.41 4409.58,5306.11C4422.7,5238.88 4485.41,5165.63 4485.41,5165.63C4485.41,5165.63 4555.02,5127 4538.15,5113.16C4065.22,4725.44 4261.86,4418.04 4261.86,4418.04C4768.2,4497.58 4952.32,4961.77 4952.32,4961.77C4952.32,4961.77 5152.07,4961.77 5284.33,5007.59C5497.45,5081.43 5671.38,5328.26 5671.38,5470.18C5671.38,5674.01 5238.9,5637.8 5238.9,5637.8C5238.9,5637.8 5172.95,5935.05 5037.83,6026.07L5120.7,6328.29L5158.89,6328.45C5227.47,6328.75 5282.9,6383.19 5283.51,6450.37L4830.41,6450.37L4772.38,6238.34ZM5083.68,5197.01C5038,5197.01 5000.91,5225.94 5000.91,5261.59C5000.91,5297.23 5038,5326.17 5083.68,5326.17C5129.36,5326.17 5166.45,5297.23 5166.45,5261.59C5166.45,5225.94 5129.36,5197.01 5083.68,5197.01Z"/>
    </g>
</svg>
