<?xml version="1.0" encoding="UTF-8" standalone="no"?>
<!DOCTYPE svg PUBLIC "-//W3C//DTD SVG 1.1//EN" "http://www.w3.org/Graphics/SVG/1.1/DTD/svg11.dtd">
<svg width="100%" height="100%" viewBox="0 0 545 512" version="1.1" xmlns="http://www.w3.org/2000/svg" xmlns:xlink="http://www.w3.org/1999/xlink" xml:space="preserve" xmlns:serif="http://www.serif.com/" style="fill-rule:evenodd;clip-rule:evenodd;stroke-linejoin:round;stroke-miterlimit:2;">
    <g transform="matrix(0.997164,0,0,0.997164,25.4166,0.0139603)">
        <path d="M247.621,383.838C247.617,383.839 247.614,383.839 247.61,383.839L256.616,192L260.291,192L284.726,191.441L312.854,189.854C334.954,228.154 376.823,255.986 424.223,255.986C435.223,255.986 446.023,254.586 456.223,251.986L456.223,479.986C456.223,497.686 441.923,511.986 424.223,511.986C406.523,511.986 392.223,497.686 392.223,479.986L392.223,361.801C392.223,361.801 338.8,384.122 247.62,383.846C247.621,383.843 247.621,383.841 247.621,383.838ZM200.772,379.618C201.962,386.202 202.583,392.983 202.583,399.908C202.583,462.569 151.71,513.442 89.048,513.442C26.387,513.442 -24.486,462.569 -24.486,399.908C-24.486,344.109 15.854,297.658 68.936,288.152C113.037,236.74 158.087,212.053 195.516,200.713L186.791,260.842L126.595,292.738C134.811,295.62 142.596,299.421 149.827,304.017L205.461,274.537L205.439,274.495L205.863,274.556L217.359,195.334C223.839,194.102 229.978,193.256 235.717,192.704L226.759,383.51C217.899,382.853 209.22,381.54 200.772,379.618ZM89.048,352.273C62.758,352.273 41.414,373.618 41.414,399.908C41.414,426.198 62.758,447.542 89.048,447.542C115.339,447.542 136.683,426.198 136.683,399.908C136.683,373.618 115.339,352.273 89.048,352.273ZM456.223,218.486C446.223,221.986 435.423,223.986 424.223,223.986C395.823,223.986 370.223,211.586 352.623,191.986C348.923,187.886 345.623,183.486 342.723,178.786C333.523,163.986 328.223,146.586 328.223,127.986L328.223,10.686C328.223,4.786 332.923,0.086 338.823,-0.014L339.023,-0.014C342.323,-0.014 345.423,1.586 347.423,4.186L347.423,4.286L360.223,21.286L387.423,57.586L392.223,63.986L456.223,63.986L461.023,57.586L488.223,21.286L501.023,4.286L501.023,4.186C503.023,1.586 506.123,-0.014 509.423,-0.014L509.623,-0.014C515.523,0.086 520.223,4.786 520.223,10.686L520.223,127.986C520.223,145.286 515.623,161.586 507.623,175.586C496.323,195.386 478.023,210.786 456.223,218.486ZM456.223,143.986C465.001,143.986 472.223,136.763 472.223,127.986C472.223,119.209 465.001,111.986 456.223,111.986C447.446,111.986 440.223,119.209 440.223,127.986C440.223,136.763 447.446,143.986 456.223,143.986ZM408.223,127.986C408.223,119.209 401.001,111.986 392.223,111.986C383.446,111.986 376.223,119.209 376.223,127.986C376.223,136.763 383.446,143.986 392.223,143.986C401.001,143.986 408.223,136.763 408.223,127.986Z"/>
    </g>
</svg>
