<?xml version="1.0" encoding="UTF-8" standalone="no"?>
<!DOCTYPE svg PUBLIC "-//W3C//DTD SVG 1.1//EN" "http://www.w3.org/Graphics/SVG/1.1/DTD/svg11.dtd">
<svg width="100%" height="100%" viewBox="0 0 516 512" version="1.1" xmlns="http://www.w3.org/2000/svg" xmlns:xlink="http://www.w3.org/1999/xlink" xml:space="preserve" xmlns:serif="http://www.serif.com/" style="fill-rule:evenodd;clip-rule:evenodd;stroke-linejoin:round;stroke-miterlimit:2;">
    <g transform="matrix(0.260112,0,0,0.260112,-1058.1,-1217.68)">
        <path d="M4504.42,6160.11L4504.42,5661.95C4504.42,5352.67 4755.52,5101.57 5064.8,5101.57C5374.09,5101.57 5625.19,5352.67 5625.19,5661.95L5625.19,6160.11L4504.42,6160.11ZM5121.11,5468.81C5121.11,5468.81 5224.72,5490.04 5265.57,5619.17C5277.76,5657.69 5318.92,5679.07 5357.44,5666.89C5395.96,5654.7 5417.34,5613.53 5405.15,5575.02C5334.35,5351.21 5144.85,5324.34 5144.85,5324.34C5104.98,5317.79 5067.3,5344.84 5060.75,5384.71C5054.2,5424.57 5081.24,5462.26 5121.11,5468.81ZM4221.43,6649.75L4221.43,6497.46C4221.43,6392.92 4306.29,6308.05 4410.83,6308.05L5719.38,6308.05C5823.92,6308.05 5908.79,6392.92 5908.79,6497.46L5908.79,6649.75L4221.43,6649.75ZM4282.42,5595.16C4322.82,5595.16 4355.62,5627.96 4355.62,5668.36C4355.62,5708.76 4322.82,5741.56 4282.42,5741.56L4146.92,5741.56C4106.52,5741.56 4073.72,5708.76 4073.72,5668.36C4073.72,5627.96 4106.52,5595.16 4146.92,5595.16L4282.42,5595.16ZM4565.82,5074.72C4593.69,5103.96 4592.58,5150.33 4563.33,5178.21C4534.09,5206.08 4487.71,5204.96 4459.84,5175.72L4366.36,5077.63C4338.48,5048.38 4339.6,5002.01 4368.85,4974.14C4398.09,4946.27 4444.46,4947.38 4472.34,4976.63L4565.82,5074.72ZM4991.6,4754.57C4991.6,4714.17 5024.4,4681.37 5064.8,4681.37C5105.2,4681.37 5138,4714.17 5138,4754.57L5138,4890.08C5138,4930.48 5105.2,4963.28 5064.8,4963.28C5024.4,4963.28 4991.6,4930.48 4991.6,4890.08L4991.6,4754.57ZM5559.15,5074.72L5652.63,4976.63C5680.5,4947.38 5726.87,4946.27 5756.12,4974.14C5785.37,5002.01 5786.48,5048.38 5758.61,5077.63L5665.12,5175.72C5637.25,5204.96 5590.88,5206.08 5561.63,5178.21C5532.39,5150.33 5531.27,5103.96 5559.15,5074.72ZM5978.4,5595.16C6018.8,5595.16 6051.6,5627.96 6051.6,5668.36C6051.6,5708.76 6018.8,5741.56 5978.4,5741.56L5842.89,5741.56C5802.49,5741.56 5769.69,5708.76 5769.69,5668.36C5769.69,5627.96 5802.49,5595.16 5842.89,5595.16L5978.4,5595.16Z"/>
    </g>
</svg>
