<?xml version="1.0" encoding="UTF-8" standalone="no"?>
<!DOCTYPE svg PUBLIC "-//W3C//DTD SVG 1.1//EN" "http://www.w3.org/Graphics/SVG/1.1/DTD/svg11.dtd">
<svg width="100%" height="100%" viewBox="0 0 576 512" version="1.1" xmlns="http://www.w3.org/2000/svg" xmlns:xlink="http://www.w3.org/1999/xlink" xml:space="preserve" xmlns:serif="http://www.serif.com/" style="fill-rule:evenodd;clip-rule:evenodd;stroke-linejoin:round;stroke-miterlimit:2;">
    <g transform="matrix(0.230664,0,0,0.230664,-818.578,-1027.77)">
        <path d="M5603.49,5174.77C5608.68,5168.33 5611.59,5163.78 5611.59,5163.78C5611.59,5163.78 6043.46,5261.39 6036,5760.2C6032.38,6002.77 5740.13,5890.93 5531.45,5759.12C5543.38,5852.15 5541.38,5926.04 5530.53,5984.72C5527.04,6061.76 5496.68,6129.73 5421.28,6173.04C5380.96,6200.5 5340.54,6208.09 5318.53,6210.12C5310.01,6211.88 5301.17,6213.47 5292.03,6214.87C5256.24,6354.89 5257.76,6665.03 5131.5,6666.12C5035.58,6666.95 5106.08,6670.27 4974.17,6671.6C4922.8,6672.12 4899.15,6659.25 4878.4,6611.33C4862.64,6574.94 4864.91,6445.95 4860.39,6338.42C4691.81,6516.21 4535.62,6368.09 4498.6,6350.95C4481.17,6451.9 4540.93,6665.88 4412.72,6669.33C4259.87,6673.44 4326.96,6675.64 4232.44,6674.71C4164.96,6674.05 4148.81,6635.6 4142.93,6607.73C4102.65,6416.92 4104.13,6433.71 4070.22,6224.76C3824.91,6214.82 3773.98,6035.19 3810.33,5911.26C3711.79,5813.7 3682.12,5730.67 3687.12,5662.9C3653.29,5678 3620.88,5680.93 3613.16,5674.74C3425.09,5523.81 3762.55,5418.07 3796.06,5408.54C3833.74,5342.17 3868.86,5147.53 4101.78,5169.12C4110.76,4938.83 4395.55,4916.93 4498.27,5022.9C4595.44,4922.49 4747.67,4939.34 4889.98,5033.77C4968.94,5027.15 5145.86,4827.21 5423.86,5057.74C5360.41,5037.44 5263.8,5023.5 5136.35,5081.22C5018.89,5134.42 4926.83,5293.13 4961.55,5412.44C5002.13,5551.91 5081.45,5617.56 5188.03,5638.79C5341.39,5669.34 5452.26,5513.11 5427.25,5406.22C5406.61,5317.98 5375.12,5302.27 5350.4,5290.88C5328.66,5280.85 5318.15,5303.3 5318.15,5303.3C5318.15,5303.3 5313.86,5318.49 5327.24,5329.89C5340.62,5341.28 5332.76,5342.74 5355.86,5369.36C5386.3,5404.43 5373.45,5558.36 5219.66,5547.3C5066.41,5536.28 5076.9,5351.48 5105.91,5301.19C5152.45,5220.52 5260.87,5190.95 5346.27,5216.25C5428.63,5240.66 5464.41,5332.87 5538.32,5351.81C5581.14,5362.79 5651.03,5289.41 5643.07,5257.75C5635.12,5226.12 5620.84,5198.41 5603.49,5174.77ZM5743.11,5376.11C5705.46,5376.11 5674.9,5406.68 5674.9,5444.32C5674.9,5481.97 5705.46,5512.53 5743.11,5512.53C5780.75,5512.53 5811.32,5481.97 5811.32,5444.32C5811.32,5406.68 5780.75,5376.11 5743.11,5376.11Z"/>
    </g>
</svg>
