<?xml version="1.0" encoding="UTF-8" standalone="no"?>
<!DOCTYPE svg PUBLIC "-//W3C//DTD SVG 1.1//EN" "http://www.w3.org/Graphics/SVG/1.1/DTD/svg11.dtd">
<svg width="100%" height="100%" viewBox="0 0 675 512" version="1.1" xmlns="http://www.w3.org/2000/svg" xmlns:xlink="http://www.w3.org/1999/xlink" xml:space="preserve" xmlns:serif="http://www.serif.com/" style="fill-rule:evenodd;clip-rule:evenodd;stroke-linejoin:round;stroke-miterlimit:2;">
    <g transform="matrix(-0.273318,0,0,0.273318,1636.95,-1294.02)">
        <path d="M4111.39,5532.3C4112.86,5520.27 4115.75,5508.28 4120.13,5496.56C4143.93,5432.86 4171.6,5371.44 4204.34,5313.94C4196.21,5138.88 4051.51,4999.24 3874.45,4999.24C3692.18,4999.24 3519.53,5144.17 3519.53,5436.69C3519.53,5449.17 3552.18,5490.71 3561.35,5497.81C4073.64,5893.92 4150.56,5909.53 4150.56,6074.11C4150.56,6089.14 4150.9,6098.22 4151.53,6102.12L4151.53,6134.01C4150.89,6139.68 4150.56,6145.44 4150.56,6151.28L4150.56,6455.6C4150.56,6539.57 4218.74,6607.76 4302.72,6607.76L4443.51,6607.76C4527.49,6607.76 4595.67,6539.57 4595.67,6455.6L4595.67,6344.88L4596.61,6344.88C4596.63,6343.83 4596.64,6342.79 4596.64,6341.74L4596.64,6221.81C4777.93,6293.38 4970.14,6326.95 5150.56,6331.85L5150.56,6455.6C5150.56,6539.57 5218.74,6607.76 5302.72,6607.76L5443.51,6607.76C5527.49,6607.76 5595.67,6539.57 5595.67,6455.6L5595.67,6281.39C5686.94,6255.76 5764.51,6221.59 5822.14,6181.47C5858.45,6156.19 5907.59,6165.01 5952.63,6115.07C6000.49,6062.01 5928.2,5987.09 5879.83,5987.23C5653.48,6041.29 5442.51,6057.21 5250.79,6048.31C5162.27,6045.01 5077.48,6035.4 4997.1,6021.3C4471.67,5933.18 4140.35,5673.29 4111.89,5614.9C4102.91,5596.48 4101.32,5571.5 4111.39,5532.3ZM3902.52,5267.75C3943.17,5267.75 3976.18,5300.76 3976.18,5341.41C3976.18,5382.07 3943.17,5415.07 3902.52,5415.07C3861.86,5415.07 3828.86,5382.07 3828.86,5341.41C3828.86,5300.76 3861.86,5267.75 3902.52,5267.75ZM5664.52,5020.16L5631.27,5220.22L5756.33,5187.42C5732.41,5126.13 5702.62,5070.67 5664.52,5020.16ZM5785.6,5274.87L5622.14,5317.74L5800.69,5912.37C5825.08,5907.21 5849.67,5901.59 5874.44,5895.49C5856.26,5690.18 5839.94,5517.05 5808.83,5369.44C5801.91,5336.59 5794.24,5305.09 5785.6,5274.87ZM4884.43,4757.17L4834.67,5118.64L5182.26,5337.99L5512.47,5251.38L5567.87,4918.01C5542.64,4896.52 5514.97,4876.06 5484.58,4856.55C5323.99,4753.42 5103.4,4701.52 4884.43,4757.17ZM4370.68,5704.43L4710.39,5155.23L4493.53,5018.38C4490.53,5016.48 4487.84,5014.4 4485.46,5012.15C4365.39,5157.18 4300.57,5327.99 4266.83,5394.67C4230.74,5465.99 4209.27,5516.08 4199.48,5552.83C4197.53,5560.18 4196.23,5569.36 4195.54,5575.08C4214.75,5592.23 4286.85,5654.74 4370.68,5704.43ZM4551.16,4941.49C4555.35,4942.98 4559.37,4944.91 4563.13,4947.28L4730.41,5052.85L4765.42,4798.57C4708.56,4823.98 4652.58,4857.52 4598.61,4900.22C4582.08,4913.31 4566.27,4927.12 4551.16,4941.49ZM5028.46,5934.73L5104.33,5403.82L4800.84,5212.3L4464.81,5755.55C4608.57,5827.69 4799.66,5898.32 5028.46,5934.73ZM5690.96,5932.77L5514.74,5345.91L5214.73,5424.6L5139.74,5949.3C5307.04,5966.53 5491.86,5964.69 5690.96,5932.77Z"/>
    </g>
</svg>
