<?xml version="1.0" encoding="UTF-8" standalone="no"?>
<!DOCTYPE svg PUBLIC "-//W3C//DTD SVG 1.1//EN" "http://www.w3.org/Graphics/SVG/1.1/DTD/svg11.dtd">
<svg width="100%" height="100%" viewBox="0 0 500 512" version="1.1" xmlns="http://www.w3.org/2000/svg" xmlns:xlink="http://www.w3.org/1999/xlink" xml:space="preserve" xmlns:serif="http://www.serif.com/" style="fill-rule:evenodd;clip-rule:evenodd;stroke-linejoin:round;stroke-miterlimit:2;">
    <g transform="matrix(0.237535,-0.0383028,0.0414952,0.257332,-19.7458,11.7699)">
        <path d="M276.453,319.191C391.863,319.191 485.561,434.714 485.561,577.007C485.561,719.299 391.863,834.822 276.453,834.822C161.044,834.822 67.346,719.299 67.346,577.007C67.346,434.714 161.044,319.191 276.453,319.191ZM946.006,112.812C1084.99,126.05 1178.05,273.615 1153.69,442.135C1129.33,610.655 996.714,736.724 857.733,723.485C718.751,710.247 625.693,562.682 650.053,394.162C674.413,225.642 807.025,99.573 946.006,112.812ZM1742.16,522.164C1841.62,612.743 1814.22,781.605 1681.01,899.017C1547.81,1016.43 1358.91,1038.21 1259.45,947.636C1159.99,857.058 1187.38,688.195 1320.59,570.783C1453.8,453.371 1642.7,431.585 1742.16,522.164ZM1933.16,1186.03C1999.86,1272.92 1950.36,1407.05 1822.69,1485.37C1695.03,1563.69 1537.23,1556.74 1470.54,1469.84C1403.85,1382.95 1453.35,1248.82 1581.02,1170.5C1708.68,1092.18 1866.47,1099.14 1933.16,1186.03ZM-25.535,1176.45C66.767,1104.28 266.808,980.86 353.965,961.929C432.434,944.885 627.501,850.92 888.964,917.383C1226.67,1003.23 1330.35,1475.54 1314.84,1609.29C1299.33,1743.04 1330.77,2074.09 1098.94,2086.31C890.958,2097.27 649.053,1736.86 509.554,1687.81C370.054,1638.76 -63.975,1578.27 -122.436,1450.07C-150.519,1388.49 -153.557,1276.55 -25.535,1176.45Z"/>
    </g>
</svg>
