<?xml version="1.0" encoding="UTF-8" standalone="no"?>
<!DOCTYPE svg PUBLIC "-//W3C//DTD SVG 1.1//EN" "http://www.w3.org/Graphics/SVG/1.1/DTD/svg11.dtd">
<svg width="100%" height="100%" viewBox="0 0 605 512" version="1.1" xmlns="http://www.w3.org/2000/svg" xmlns:xlink="http://www.w3.org/1999/xlink" xml:space="preserve" xmlns:serif="http://www.serif.com/" style="fill-rule:evenodd;clip-rule:evenodd;stroke-linejoin:round;stroke-miterlimit:2;">
    <g transform="matrix(0.24209,0,0,0.24209,-880.758,-1099.54)">
        <path d="M4122.3,6582.49L4102.39,6610.69C4067.7,6659.82 3999.64,6671.54 3950.51,6636.85C3913.44,6610.67 3897.66,6565.49 3907.07,6523.78L3689.01,6523.78C3667.17,6523.78 3649.43,6506.05 3649.43,6484.2C3649.43,6462.35 3667.17,6444.61 3689.01,6444.61L3952.17,6444.61L4051.28,6305.22L4170.97,6135.71C4945.67,6314.6 5449.57,5871.86 5384.83,5384.08C5381.5,5359 5358.44,5341.34 5333.36,5344.67C5308.28,5348 5290.63,5371.06 5293.96,5396.14C5317.06,5570.19 5248.29,5734.74 5120.58,5858.15C4932.14,6040.23 4515.26,6161.81 4183.4,6019.03C4182.88,6017.59 4182.22,6016.64 4181.43,6016.13C4422.75,5344.67 4952.28,5037.92 4952.28,5037.92C4971.29,4756.45 5453.5,4354.62 5877.24,4639.47C5890.83,4648.61 5903.32,4657.56 5914.74,4666.32C5922.55,4671.48 5940.67,4686.04 5961.23,4708.66C5930.69,4718.96 5900.49,4736.27 5872.58,4757.39C5797.47,4814.22 5738.81,4894.97 5738.81,4894.97L5714.37,4928.65L5749.24,4951.38C5749.24,4951.38 5836.36,5009.06 5904.19,5136.85C5833.07,5167.31 5753.85,5174.34 5710.4,5179.1C5649.86,5185.72 5633.65,5220.86 5638.92,5272.77C5672.01,5598.69 5625.52,6190.94 4770.72,6342.36L4793.99,6399.89C4799.94,6414.6 4801.38,6430.02 4798.97,6444.61L5327.95,6444.61C5349.8,6444.61 5367.53,6462.35 5367.53,6484.2C5367.53,6506.05 5349.8,6523.78 5327.95,6523.78L4254.33,6523.78L4223.88,6568.86C4202.67,6600.24 4159.98,6608.5 4128.6,6587.3C4126.38,6585.8 4124.28,6584.19 4122.3,6582.49ZM4307.83,6444.61L4632.31,6444.61L4603.13,6372.48C4522.78,6388.05 4430.88,6402.76 4326.07,6417.62L4307.83,6444.61ZM5538.17,4809.17C5503.86,4809.17 5476,4836.8 5476,4870.83C5476,4904.87 5503.86,4932.5 5538.17,4932.5C5572.48,4932.5 5600.34,4904.87 5600.34,4870.83C5600.34,4836.8 5572.48,4809.17 5538.17,4809.17ZM6047.7,4780.93C6150.49,4879.03 6153.41,5071.15 6113.09,5180.25C6109.53,5189.89 6095.86,5229.58 6077.44,5232.72C6048.38,5218.03 6039.56,5201.91 5999.99,5153.84C5945.96,5027.53 5870.09,4949.13 5826.63,4911.6C5847.89,4886.39 5881.61,4849.83 5920.34,4820.52C5956.99,4792.79 5997.69,4768.93 6035.93,4779.51C6039.86,4780.59 6043.82,4781.05 6047.7,4780.93Z"/>
    </g>
</svg>
