<?xml version="1.0" encoding="UTF-8" standalone="no"?>
<!DOCTYPE svg PUBLIC "-//W3C//DTD SVG 1.1//EN" "http://www.w3.org/Graphics/SVG/1.1/DTD/svg11.dtd">
<svg width="100%" height="100%" viewBox="0 0 542 512" version="1.1" xmlns="http://www.w3.org/2000/svg" xmlns:xlink="http://www.w3.org/1999/xlink" xml:space="preserve" xmlns:serif="http://www.serif.com/" style="fill-rule:evenodd;clip-rule:evenodd;stroke-linejoin:round;stroke-miterlimit:2;">
    <g transform="matrix(0.203718,0,0,0.195678,-764.346,-888.303)">
        <path d="M4641.59,6608.39L4225.39,6613.78L4135.61,6565.57C4124.84,6578.69 4110.86,6593.8 4094.29,6607.51C4063.61,6632.9 4024.57,6652.77 3981.45,6652.77C3923.84,6652.77 3874.53,6635.32 3836.07,6600.81C3799.25,6567.76 3771.89,6518.19 3759.46,6449.66C3744.24,6365.76 3792.3,6262.13 3946.23,6234.85C3911.98,6065.67 3897.87,5784.06 4118.3,5569.32C4321.24,5371.62 4623.44,5383.82 4824.2,5407.1C4867.87,5330.93 4930.74,5243.1 5016.31,5171.26C4765.06,4870.65 4864.43,4570 4864.43,4570C4871.62,4547.58 4895.36,4534.86 4918.02,4541.29C4918.02,4541.29 5240.39,4629.71 5419.34,5071.85C5564.87,5088.95 5702.01,5082.14 5841.85,5250.45C5904.33,5325.65 5964.98,5434.72 5987.45,5518.84C5999.17,5562.71 6000.2,5601.13 5991.15,5628.34C5982.01,5655.81 5953.07,5690.94 5903.63,5720.88C5846.92,5755.22 5761.2,5785.53 5655.45,5792.61C5653.74,5816.32 5650.48,5848.34 5644.24,5884.21C6131.12,5942.34 6320.08,6362.49 6212.74,6757.66L6213.27,6757.66C6323.24,6757.66 6412.52,6846.95 6412.52,6956.92C6412.52,7066.89 6323.24,7156.17 6213.27,7156.17C6147.57,7156.17 6089.26,7124.3 6052.96,7075.2C6052.79,7075.42 6052.62,7075.64 6052.45,7075.85L6052.45,7075.26L6018.9,7014.83L5944.34,7068.01C5944.34,7068.39 5937.65,7072.78 5937.65,7072.78L5936.31,7073.73L5886.66,7072.78L5027.62,7072.78C5027.59,7071.58 5027.57,7070.37 5027.57,7069.17C5027.57,7001.07 5071.45,6945.79 5125.49,6945.79L5546.03,6945.79L5467.03,6875.18C5361.66,6776.95 5316.01,6689.61 5310.68,6614.68C5303.75,6517.23 5367.8,6445.63 5439.43,6408.44C5486.07,6384.23 5536.34,6373.69 5573.36,6383.16C5594.53,6388.58 5616.11,6375.79 5621.53,6354.63C5626.94,6333.47 5614.16,6311.88 5592.99,6306.47C5547.77,6294.89 5488.2,6301.25 5430.3,6325.4C5346.25,6360.46 5266.33,6432.26 5240.09,6530.38C5216.12,6620 5235.58,6734.74 5346.91,6864.55L5121.82,6864.55C5074.51,6864.55 5034.19,6884.23 5003.32,6915.86C4980.47,6910.58 4959.89,6904.37 4944.02,6897.07C4939,6894.77 4934.45,6892.35 4930.44,6889.82C4922.92,6885.07 4897.96,6869.95 4883.85,6860.79L4838.57,7072.82L4485.05,7072.82C4485.53,7005.64 4528.77,6951.19 4582.28,6950.9L4612.08,6950.74L4676.74,6648.52C4664.27,6637.75 4652.55,6624.1 4641.59,6608.39ZM4781.29,5490.03C4724.39,5484.05 4660.81,5479.73 4594.85,5481.5C4451.85,5485.35 4296.57,5517.81 4179.36,5632C3965.2,5840.63 4006.98,6121.94 4042.08,6262L4054.9,6313.14L4002.27,6316.31C3884.88,6323.37 3835.41,6378.12 3845.55,6434.05C3853.83,6479.68 3870,6513.69 3894.51,6535.69C3917.39,6556.22 3947.18,6565.27 3981.45,6565.27C4003.57,6565.27 4022.77,6553.12 4038.51,6540.1C4067.29,6516.27 4085.15,6486.55 4085.15,6486.55L4106.58,6450.65L4246.87,6526C4246.87,6526 4409.8,6523.89 4595.06,6521.49C4544.64,6403.44 4519.85,6260.25 4519.85,6260.25C4519.85,6260.25 4182.42,6296.46 4182.42,6092.62C4182.42,5950.7 4318.12,5703.87 4484.41,5630.04C4587.6,5584.22 4743.45,5584.22 4743.45,5584.22C4743.45,5584.22 4755.22,5546.19 4781.29,5490.03ZM5556.54,5877.82C5562.64,5845.06 5565.94,5815.43 5567.72,5793.01C5520.81,5790.37 5471,5783.07 5418.88,5769.84C5395.48,5763.9 5381.3,5740.07 5387.24,5716.67C5393.19,5693.27 5417.01,5679.09 5440.41,5685.03C5501.76,5700.61 5559.44,5706.97 5612.14,5706.72C5612.61,5706.7 5613.09,5706.69 5613.57,5706.69C5613.85,5706.69 5614.13,5706.69 5614.41,5706.7C5697.5,5705.99 5768.09,5688.81 5820.97,5665.36C5847.74,5653.48 5869.72,5640.12 5885.9,5626.56C5896.97,5617.27 5905.38,5608.96 5908.12,5600.71C5915.23,5579.35 5906.31,5546.83 5892.91,5509.98C5868.16,5441.91 5821.8,5363.24 5774.55,5306.36C5645.83,5151.44 5516.9,5174.16 5382.03,5155.28L5356.43,5151.7L5347.22,5127.55C5226.44,4810.88 5026.5,4685.24 4938.29,4643.41C4926.13,4729.82 4923.33,4923.83 5087.47,5119.11C5144.17,5083.27 5208.84,5055.25 5282.18,5040.48C5282.18,5040.48 5435.61,5347.89 5066.61,5735.61C5053.44,5749.44 5107.76,5788.07 5107.76,5788.07C5107.76,5788.07 5156.69,5861.33 5166.92,5928.56C5311.38,5890.06 5441.24,5874.54 5556.54,5877.82ZM4640.96,5819.45C4605.32,5819.45 4576.38,5848.39 4576.38,5884.03C4576.38,5919.68 4605.32,5948.61 4640.96,5948.61C4676.61,5948.61 4705.54,5919.68 4705.54,5884.03C4705.54,5848.39 4676.61,5819.45 4640.96,5819.45ZM5523.57,5314.83C5563.86,5314.83 5596.56,5348.61 5596.56,5390.21C5596.56,5431.82 5563.86,5465.6 5523.57,5465.6C5483.29,5465.6 5450.58,5431.82 5450.58,5390.21C5450.58,5348.61 5483.29,5314.83 5523.57,5314.83Z"/>
    </g>
</svg>
