<?xml version="1.0" encoding="UTF-8" standalone="no"?>
<!DOCTYPE svg PUBLIC "-//W3C//DTD SVG 1.1//EN" "http://www.w3.org/Graphics/SVG/1.1/DTD/svg11.dtd">
<svg width="100%" height="100%" viewBox="0 0 605 512" version="1.1" xmlns="http://www.w3.org/2000/svg" xmlns:xlink="http://www.w3.org/1999/xlink" xml:space="preserve" xmlns:serif="http://www.serif.com/" style="fill-rule:evenodd;clip-rule:evenodd;stroke-linejoin:round;stroke-miterlimit:2;">
    <g transform="matrix(-0.213823,0,0,0.213823,1349.92,-970.822)">
        <path d="M4492.34,6440.16C4618.03,6526.47 4785.42,6595.44 5007.23,6634.73L4983.96,6692.26C4978.01,6706.97 4976.57,6722.39 4978.98,6736.98L4450,6736.98C4428.15,6736.98 4410.42,6754.72 4410.42,6776.57C4410.42,6798.42 4428.15,6816.15 4450,6816.15L5523.62,6816.15L5554.07,6861.23C5575.28,6892.61 5617.97,6900.87 5649.35,6879.67C5651.57,6878.17 5653.67,6876.56 5655.65,6874.86L5675.56,6903.06C5710.25,6952.19 5778.31,6963.91 5827.44,6929.22C5864.51,6903.04 5880.29,6857.86 5870.88,6816.15L6088.94,6816.15C6110.78,6816.15 6128.52,6798.42 6128.52,6776.57C6128.52,6754.72 6110.78,6736.98 6088.94,6736.98L5825.78,6736.98L5726.67,6597.59L5606.98,6428.08C4832.28,6606.97 4328.38,6164.23 4393.12,5676.45C4396.45,5651.37 4419.51,5633.71 4444.59,5637.04C4469.67,5640.37 4487.32,5663.43 4483.99,5688.51C4460.89,5862.56 4529.66,6027.11 4657.37,6150.52C4845.81,6332.6 5262.69,6454.18 5594.55,6311.4C5595.07,6309.96 5595.73,6309.01 5596.52,6308.5C5581.31,6266.16 5564.94,6225.27 5547.64,6185.82C5538.78,6182.81 5531.03,6176.5 5526.43,6167.53C5399.04,5919.36 5195.29,5622.07 4978.66,5440.16C4947.83,5415.11 4920.35,5394.44 4897.48,5378.04C4870.46,5359.43 4843.36,5342.9 4816.31,5328.74L4804.15,5322.38L4799.01,5309.65C4616.88,4858.64 4187.43,4846.27 4187.43,4846.27C4178.02,4846.03 4169.5,4842.31 4163.08,4836.38C4076.15,4844.16 3987.21,4873.7 3900.71,4931.84C3887.12,4940.98 3874.63,4949.93 3863.21,4958.69C3855.4,4963.85 3837.28,4978.41 3816.72,5001.03C3847.26,5011.33 3877.46,5028.64 3905.37,5049.76C3980.48,5106.59 4039.14,5187.34 4039.14,5187.34L4063.58,5221.02L4028.71,5243.75C4028.71,5243.75 3941.59,5301.43 3873.76,5429.22C3944.88,5459.68 4024.1,5466.71 4067.55,5471.47C4128.09,5478.09 4144.3,5513.23 4139.03,5565.14C4124.65,5706.85 4125.3,5898.91 4200.9,6083.19L4165.4,6139.77L4163.81,6145.85L4051.28,6305.22L3952.17,6444.61L3907.07,6523.78C3897.66,6565.49 3913.44,6610.67 3950.51,6636.85C3999.64,6671.54 4067.7,6659.82 4102.39,6610.69L4122.3,6582.49C4124.28,6584.19 4126.38,6585.8 4128.6,6587.3C4159.98,6608.5 4202.67,6600.24 4223.88,6568.86L4254.33,6523.78L4492.34,6440.16ZM5470.12,6736.98L5145.64,6736.98L5174.82,6664.85C5255.17,6680.42 5347.07,6695.13 5451.88,6709.99L5470.12,6736.98ZM4239.78,5101.54C4274.09,5101.54 4301.95,5129.17 4301.95,5163.2C4301.95,5197.24 4274.09,5224.87 4239.78,5224.87C4205.47,5224.87 4177.61,5197.24 4177.61,5163.2C4177.61,5129.17 4205.47,5101.54 4239.78,5101.54ZM5489.48,5949.76C5650.97,5723.74 5657.53,5456.11 5638.92,5272.77C5633.65,5220.86 5649.86,5185.72 5710.4,5179.1C5753.85,5174.34 5833.07,5167.31 5904.19,5136.85C5836.36,5009.06 5749.24,4951.38 5749.24,4951.38L5714.37,4928.65L5738.81,4894.97C5738.81,4894.97 5797.47,4814.22 5872.58,4757.39C5900.49,4736.27 5930.69,4718.96 5961.23,4708.66C5940.67,4686.04 5922.55,4671.48 5914.74,4666.32C5903.32,4657.56 5890.83,4648.61 5877.24,4639.47C5453.5,4354.62 4971.29,4756.45 4952.28,5037.92C4952.28,5037.92 4890.97,5073.43 4800.57,5146.75C4823.24,5183.76 4844.24,5224.43 4863.01,5269.11C5001.9,5345.19 5142.08,5479.8 5268.03,5634.88C5295.13,5559.73 5304.96,5479.01 5293.96,5396.14C5290.63,5371.06 5308.28,5348 5333.36,5344.67C5358.44,5341.34 5381.5,5359 5384.83,5384.08C5400.51,5502.21 5382.84,5617.7 5336.04,5722.36C5391.31,5796.55 5442.96,5873.58 5489.48,5949.76ZM5538.17,4809.17C5572.48,4809.17 5600.34,4836.8 5600.34,4870.83C5600.34,4904.87 5572.48,4932.5 5538.17,4932.5C5503.86,4932.5 5476,4904.87 5476,4870.83C5476,4836.8 5503.86,4809.17 5538.17,4809.17ZM6047.7,4780.93C6043.82,4781.05 6039.86,4780.59 6035.93,4779.51C5997.69,4768.93 5956.99,4792.79 5920.34,4820.52C5881.61,4849.83 5847.89,4886.39 5826.63,4911.6C5870.09,4949.13 5945.96,5027.53 5999.99,5153.84C6039.56,5201.91 6048.38,5218.03 6077.44,5232.72C6095.86,5229.58 6109.53,5189.89 6113.09,5180.25C6153.41,5071.15 6150.49,4879.03 6047.7,4780.93ZM3730.25,5073.3C3627.46,5171.4 3624.54,5363.52 3664.86,5472.62C3668.42,5482.26 3682.09,5521.95 3700.51,5525.09C3729.57,5510.4 3738.39,5494.28 3777.96,5446.21C3831.99,5319.9 3907.86,5241.5 3951.32,5203.97C3930.06,5178.76 3896.34,5142.2 3857.61,5112.89C3820.96,5085.16 3780.26,5061.3 3742.02,5071.88C3738.09,5072.96 3734.13,5073.42 3730.25,5073.3Z"/>
    </g>
</svg>
